<svg class="svg-icon" style="width: 1em; height: 1em;vertical-align: middle;fill: currentColor;overflow: hidden;" viewBox="0 0 1024 1024" version="1.1" xmlns="http://www.w3.org/2000/svg"><path d="M535.405714 573.732571l151.990857-285.110857-64 0-89.746286 178.322286q-13.677714 27.428571-25.161143 52.589714l-23.990857-52.589714-88.576-178.322286-68.534857 0 150.308571 281.746286 0 185.124571 57.709714 0 0-181.686857zM950.857143 237.714286l0 548.571429q0 68.022857-48.274286 116.297143t-116.297143 48.274286l-548.571429 0q-68.022857 0-116.297143-48.274286t-48.274286-116.297143l0-548.571429q0-68.022857 48.274286-116.297143t116.297143-48.274286l548.571429 0q68.022857 0 116.297143 48.274286t48.274286 116.297143z"  /></svg>