<?xml version="1.0" encoding="UTF-8" standalone="no"?>
<!-- Uploaded to: SVG Repo, www.svgrepo.com, Generator: SVG Repo Mixer Tools -->

<svg
   width="800px"
   height="800px"
   viewBox="0 -9 58 58"
   fill="none"
   version="1.1"
   id="svg24"
   xmlns="http://www.w3.org/2000/svg"
   xmlns:svg="http://www.w3.org/2000/svg">
  <defs
     id="defs28" />
  <rect
     x="0.5"
     y="0.5"
     width="57"
     height="39"
     rx="3.5"
     fill="white"
     stroke="#F3F3F3"
     id="rect2" />
  <path
     style="fill:#000000;stroke-width:0.0576175"
     d="m 6.4622646,25.617182 c 0.02129,-0.08626 0.4742842,-2.020317 1.0069002,-4.297887 0.5326187,-2.277574 0.9802532,-4.182732 0.9947452,-4.233686 0.05146,-0.18098 1.516935,-0.460785 2.413357,-0.460785 0.938479,0 1.48557,0.184598 1.997313,0.673944 0.554506,0.530229 0.770741,1.214517 0.725889,2.297105 -0.03167,0.764424 -0.131638,1.193103 -0.415535,1.78188 -0.369334,0.765961 -0.998523,1.399341 -1.758332,1.770045 -0.57809,0.282042 -1.045189,0.372734 -1.898865,0.368677 l -0.755681,-0.0035 -0.03794,0.153261 c -0.02075,0.0843 -0.143959,0.585824 -0.273571,1.114494 l -0.2356308,0.961223 -0.9005801,0.01605 -0.900581,0.01605 0.038508,-0.156852 z m 3.7664444,-3.66386 c 0.966671,-0.254157 1.566539,-1.146412 1.584931,-2.357449 0.0075,-0.493446 -0.0083,-0.58821 -0.145742,-0.874296 -0.223284,-0.464771 -0.396129,-0.554228 -1.058817,-0.548004 -0.291022,0.0027 -0.552322,0.02895 -0.580667,0.05824 -0.0371,0.03835 -0.913208,3.616211 -0.913208,3.729331 0,0.09861 0.728141,0.0935 1.113505,-0.0079 z M 49.4614,25.124116 c -0.109686,-0.03373 -0.222246,-0.08386 -0.25008,-0.111422 -0.02927,-0.02897 0.01596,-0.210442 0.107397,-0.430219 0.127782,-0.30737 0.175653,-0.370932 0.250081,-0.332189 0.467078,0.243056 1.20091,0.01578 1.577196,-0.488608 l 0.155189,-0.207992 -0.147685,-0.62446 C 50.892455,21.825371 50.741683,20.836882 50.629514,19.49392 l -0.03528,-0.422354 h 0.484343 0.48434 l 0.02985,0.247573 c 0.0165,0.136177 0.04534,0.496631 0.06429,0.801019 0.04042,0.650012 0.163198,1.648331 0.256466,2.085301 0.04909,0.23 0.08334,0.293649 0.134619,0.25013 0.206653,-0.175322 0.939461,-1.840113 1.265225,-2.874308 l 0.160567,-0.509738 h 0.501131 c 0.280561,0 0.501128,0.02448 0.501128,0.05565 0,0.113164 -0.517173,1.418764 -0.819912,2.069853 -0.579151,1.245555 -1.449852,2.632323 -2.006992,3.196548 -0.287214,0.290869 -0.613563,0.516076 -0.934183,0.644663 -0.30991,0.12429 -0.979421,0.170126 -1.253695,0.08583 z m -25.444317,-1.4875 c -0.445559,-0.09246 -0.769314,-0.222873 -0.769314,-0.309873 0,-0.107641 1.415932,-6.18812 1.448827,-6.221749 0.02502,-0.02557 0.96718,-0.183782 0.985759,-0.165638 0.0069,0.0068 -0.10149,0.495891 -0.241059,1.086859 -0.139542,0.590968 -0.254232,1.107928 -0.25487,1.148803 -7.72e-4,0.05533 0.04606,0.04938 0.183609,-0.02339 0.101596,-0.05373 0.358131,-0.110335 0.570045,-0.125841 0.917087,-0.06708 1.488753,0.49035 1.565403,1.526411 0.03883,0.52471 -0.131879,1.261161 -0.39719,1.713699 -0.3928,0.669976 -1.141829,1.21363 -1.859554,1.349679 -0.29875,0.05663 -1.002239,0.06863 -1.231672,0.02095 z m 1.483391,-0.980632 c 0.672099,-0.336156 1.123758,-1.236842 1.029846,-2.053696 -0.07469,-0.649639 -0.469918,-0.899862 -1.126765,-0.713359 -0.411413,0.116809 -0.432126,0.158729 -0.763112,1.54431 -0.168094,0.703628 -0.306577,1.297063 -0.30777,1.318747 -0.009,0.163489 0.778397,0.09877 1.167801,-0.096 z m 3.729097,0.931414 c -0.466754,-0.152662 -0.873922,-0.607009 -0.991802,-1.106687 -0.06834,-0.289664 -0.03973,-1.02898 0.05397,-1.394567 0.207264,-0.808857 0.743398,-1.501639 1.429133,-1.846748 0.339135,-0.170671 0.449481,-0.196024 0.930618,-0.213787 0.48259,-0.01769 0.575208,-0.0047 0.798997,0.11485 0.387185,0.20647 0.589572,0.503881 0.618196,0.908417 0.04827,0.68217 -0.232251,1.158971 -0.860378,1.462367 -0.418329,0.202063 -0.789101,0.285703 -1.521534,0.343235 l -0.540921,0.04249 0.005,0.249123 c 0.01277,0.627499 0.815849,0.877854 1.822603,0.568115 0.296107,-0.0911 0.286118,-0.102745 0.32809,0.382548 l 0.02818,0.325952 -0.322642,0.107397 c -0.427757,0.142407 -1.419576,0.174343 -1.777533,0.05727 z m 1.254242,-2.569288 c 0.617129,-0.187346 0.893208,-0.735953 0.540717,-1.074479 -0.288199,-0.276781 -0.992399,-0.122086 -1.375116,0.302076 -0.166604,0.184653 -0.4181,0.680194 -0.4181,0.823836 0,0.110008 0.02608,0.114388 0.471938,0.07935 0.259579,-0.02041 0.610817,-0.07925 0.780561,-0.130764 z m 6.163067,2.502878 c -0.495897,-0.252633 -0.748186,-0.779589 -0.748186,-1.562769 0,-1.308193 0.761799,-2.380001 1.994517,-2.806174 0.424976,-0.146922 1.431632,-0.14948 1.894788,-0.0049 0.180229,0.05628 0.327672,0.111857 0.327672,0.1235 0,0.0117 -0.142656,0.620401 -0.316988,1.352824 -0.403225,1.693975 -0.442946,2.184807 -0.223975,2.768109 0.03861,0.102853 -0.02075,0.124099 -0.556201,0.199178 -0.26917,0.03773 -0.271413,0.03667 -0.356352,-0.17116 l -0.08547,-0.209135 -0.268528,0.174099 c -0.525766,0.340861 -1.157941,0.392748 -1.661257,0.13634 z m 1.549514,-0.875517 c 0.22331,-0.160116 0.242336,-0.196106 0.304667,-0.576154 0.03656,-0.222954 0.159659,-0.78281 0.273542,-1.244138 0.11389,-0.46133 0.193747,-0.874217 0.177489,-0.917532 -0.04218,-0.112347 -0.511002,-0.09739 -0.864655,0.02758 -0.757896,0.267812 -1.246795,1.077069 -1.2092,2.001509 0.0197,0.481343 0.121394,0.701488 0.393609,0.851106 0.219665,0.120726 0.65005,0.05446 0.924537,-0.14238 z m 8.394315,0.942733 c -0.679612,-0.247655 -1.027648,-1.198375 -0.814404,-2.224694 0.311685,-1.500092 1.54375,-2.429847 3.086739,-2.329346 0.520349,0.03389 1.054245,0.175948 1.054245,0.280494 0,0.03155 -0.142417,0.661992 -0.316461,1.400973 -0.33574,1.425464 -0.391384,1.968258 -0.254896,2.486455 0.08126,0.308513 0.06208,0.32654 -0.405123,0.380577 -0.392244,0.04537 -0.427076,0.03069 -0.476818,-0.200812 -0.03853,-0.179375 -0.106466,-0.222274 -0.174321,-0.110062 -0.02129,0.03523 -0.195902,0.140067 -0.388018,0.232964 -0.397504,0.192242 -0.920932,0.225566 -1.310953,0.08344 z m 1.205677,-0.820473 c 0.333957,-0.142624 0.525205,-0.362635 0.525812,-0.604934 1.94e-4,-0.11417 0.114103,-0.664875 0.252953,-1.22382 0.138824,-0.558942 0.23768,-1.040636 0.219665,-1.070428 -0.01809,-0.02978 -0.202368,-0.04168 -0.409651,-0.02638 -0.974655,0.07181 -1.667247,0.882071 -1.68175,1.96745 -0.0069,0.519568 0.08734,0.786537 0.331539,0.938767 0.213677,0.133212 0.479039,0.139958 0.761437,0.01932 z M 5.9975752,23.495428 C 5.3251906,23.405958 4.8190066,23.0909 4.5702251,22.607003 4.4271969,22.328811 4.4152226,22.25381 4.4194533,21.663957 c 0.00456,-0.61777 0.034673,-0.768453 0.8407379,-4.190275 0.4598747,-1.952206 0.8454022,-3.558933 0.8567269,-3.570507 0.030519,-0.03123 1.8160707,-0.312273 1.8384578,-0.28939 0.010641,0.01088 -0.3781,1.70071 -0.8636461,3.755406 -0.485546,2.054697 -0.88281,3.836083 -0.88281,3.958635 0,0.122548 0.040021,0.281236 0.088933,0.35263 0.1041245,0.151954 0.3699629,0.30391 0.5317141,0.30391 0.062404,0 0.1278344,0.02393 0.1454496,0.05293 0.025809,0.04277 -0.1649543,0.978715 -0.2890873,1.418016 -0.031612,0.111858 -0.1132783,0.116618 -0.6883509,0.0401 z m 10.4118578,0.04369 c 0,-0.01088 0.291804,-1.263022 0.648455,-2.782537 0.35665,-1.519515 0.666411,-2.84795 0.688361,-2.952084 l 0.03991,-0.189331 h 0.508351 c 0.27959,0 0.507112,0.01958 0.505604,0.04369 -0.0015,0.02394 -0.265541,1.157835 -0.586741,2.519568 l -0.584,2.475877 1.290563,0.01551 1.290559,0.01551 -0.09683,0.421304 -0.09683,0.421301 -1.803702,0.01551 c -0.992036,0.0085 -1.803706,0.0065 -1.803703,-0.0044 z m 4.501905,-0.04989 c 0,-0.0596 0.826175,-3.620648 0.974234,-4.199215 l 0.05591,-0.218466 h 0.488284 c 0.365844,0 0.482074,0.01823 0.463518,0.07282 -0.01357,0.04005 -0.252847,1.049335 -0.531589,2.242852 l -0.506825,2.170032 h -0.471765 c -0.321717,0 -0.471765,-0.02176 -0.471765,-0.06803 z m 11.511202,0.01578 c 0,-0.088 0.967217,-4.159916 0.994825,-4.18814 0.0673,-0.0688 0.843774,-0.251436 1.204396,-0.283309 0.422742,-0.03735 1.086646,0.01224 1.210204,0.09018 0.05601,0.03539 0.04138,0.128832 -0.06559,0.419078 -0.120836,0.327873 -0.154258,0.371446 -0.273361,0.356474 -0.355271,-0.04467 -1.19259,-0.03223 -1.238929,0.01849 -0.02866,0.03131 -0.239223,0.863049 -0.46794,1.8483 l -0.415831,1.791371 h -0.473885 c -0.260644,0 -0.473885,-0.02366 -0.473885,-0.05234 z m 8.059302,-0.05051 c 0.01756,-0.05659 0.324351,-1.356738 0.681746,-2.889256 0.357395,-1.53252 0.672539,-2.809636 0.700317,-2.838033 0.02778,-0.0284 0.378792,-0.08153 0.780024,-0.11806 0.944237,-0.08599 1.565145,-0.01306 2.076838,0.244036 0.610125,0.306492 0.847704,0.774962 0.790679,1.559114 -0.03858,0.530442 -0.228766,0.952907 -0.576472,1.280563 -0.519628,0.489648 -1.118961,0.687997 -2.257287,0.747049 l -0.714689,0.03708 -0.187254,0.821727 c -0.102981,0.451951 -0.211895,0.920038 -0.242018,1.04019 l -0.05479,0.218466 h -0.514518 c -0.46582,0 -0.511496,-0.0098 -0.482584,-0.102853 z m 3.155864,-3.013195 c 0.641389,-0.200375 1.003209,-0.868777 0.785597,-1.451285 -0.128899,-0.345015 -0.428878,-0.500309 -1.045909,-0.54143 -0.713119,-0.04753 -0.691065,-0.07187 -0.94049,1.03853 -0.117802,0.524451 -0.213864,0.990129 -0.213465,1.034839 10e-4,0.109192 0.986422,0.05299 1.414269,-0.08066 z M 22.364482,18.3053 c -0.191326,-0.106962 -0.25644,-0.234733 -0.25644,-0.503122 0,-0.214412 0.03201,-0.289555 0.193747,-0.454913 0.164742,-0.168413 0.233395,-0.198064 0.458478,-0.198064 0.469032,0 0.690301,0.416582 0.461509,0.868875 -0.142921,0.282526 -0.594893,0.433956 -0.857304,0.287229 z"
     id="path827" />
</svg>
